<svg width="40" height="40" viewBox="0 0 40 40" fill="none" xmlns="http://www.w3.org/2000/svg">
<path d="M33.334 11.6667H6.66732C4.82637 11.6667 3.33398 13.1591 3.33398 15.0001V31.6667C3.33398 33.5077 4.82637 35.0001 6.66732 35.0001H33.334C35.1749 35.0001 36.6673 33.5077 36.6673 31.6667V15.0001C36.6673 13.1591 35.1749 11.6667 33.334 11.6667Z" stroke="#80BD57" stroke-width="3.5" stroke-linecap="round" stroke-linejoin="round"/>
<path d="M26.6673 35V8.33333C26.6673 7.44928 26.3161 6.60143 25.691 5.97631C25.0659 5.35119 24.218 5 23.334 5H16.6673C15.7833 5 14.9354 5.35119 14.3103 5.97631C13.6852 6.60143 13.334 7.44928 13.334 8.33333V35" stroke="#80BD57" stroke-width="3.5" stroke-linecap="round" stroke-linejoin="round"/>
</svg>
