<svg width="40" height="40" viewBox="0 0 40 40" fill="none" xmlns="http://www.w3.org/2000/svg">
<mask id="mask0_2087_4152" style="mask-type:alpha" maskUnits="userSpaceOnUse" x="0" y="0" width="40" height="40">
<rect width="40" height="40" fill="#D9D9D9"/>
</mask>
<g mask="url(#mask0_2087_4152)">
<path d="M8.88875 31.5554V33.0554C8.88875 33.5957 8.69917 34.0549 8.32 34.4329C7.94056 34.811 7.47986 35 6.93792 35C6.39597 35 5.9375 34.811 5.5625 34.4329C5.1875 34.0549 5 33.5957 5 33.0554V20.6387C5 20.4876 5.00931 20.3364 5.02792 20.185C5.04625 20.0339 5.08319 19.8843 5.13875 19.7362L8.34708 10.2221C8.53236 9.64819 8.86806 9.18986 9.35417 8.84708C9.84028 8.50458 10.3843 8.33333 10.9863 8.33333H29.0138C29.6157 8.33333 30.1597 8.50458 30.6458 8.84708C31.1319 9.18986 31.4676 9.64819 31.6529 10.2221L34.8612 19.7362C34.9168 19.8843 34.9538 20.0339 34.9721 20.185C34.9907 20.3364 35 20.4876 35 20.6387V33.0554C35 33.5957 34.8103 34.0549 34.4308 34.4329C34.0517 34.811 33.5911 35 33.0492 35C32.5072 35 32.0487 34.811 31.6737 34.4329C31.2987 34.0549 31.1112 33.5957 31.1112 33.0554V31.5554H8.88875ZM8.86125 17.3887H31.1388L29.0279 11.1112H10.9721L8.86125 17.3887ZM12.1046 26.8333C12.7663 26.8333 13.3217 26.6065 13.7708 26.1529C14.22 25.699 14.4446 25.1481 14.4446 24.5C14.4446 23.8364 14.2176 23.2724 13.7638 22.8079C13.3101 22.3435 12.7593 22.1112 12.1113 22.1112C11.4476 22.1112 10.8836 22.3428 10.4192 22.8058C9.95444 23.2692 9.72208 23.8317 9.72208 24.4933C9.72208 25.1553 9.95375 25.7107 10.4171 26.1596C10.8804 26.6087 11.4429 26.8333 12.1046 26.8333ZM27.9167 26.8333C28.5803 26.8333 29.1443 26.6065 29.6087 26.1529C30.0732 25.699 30.3054 25.1481 30.3054 24.5C30.3054 23.8364 30.0739 23.2724 29.6108 22.8079C29.1475 22.3435 28.585 22.1112 27.9233 22.1112C27.2614 22.1112 26.706 22.3428 26.2571 22.8058C25.8079 23.2692 25.5833 23.8317 25.5833 24.4933C25.5833 25.1553 25.8101 25.7107 26.2638 26.1596C26.7176 26.6087 27.2686 26.8333 27.9167 26.8333ZM7.77792 28.7779H32.2221V20.1667H7.77792V28.7779Z" fill="#334699"/>
</g>
</svg>
