<svg width="40" height="40" viewBox="0 0 40 40" fill="none" xmlns="http://www.w3.org/2000/svg">
<path d="M33.3327 20V36.6667H6.66602V20" stroke="#80BD57" stroke-width="3.5" stroke-linecap="round" stroke-linejoin="round"/>
<path d="M36.6673 11.6667H3.33398V20.0001H36.6673V11.6667Z" stroke="#80BD57" stroke-width="3.5" stroke-linecap="round" stroke-linejoin="round"/>
<path d="M20 36.6666V11.6666" stroke="#80BD57" stroke-width="3.5" stroke-linecap="round" stroke-linejoin="round"/>
<path d="M20.0007 11.6666H12.5007C11.3956 11.6666 10.3358 11.2276 9.55437 10.4462C8.77297 9.6648 8.33398 8.60499 8.33398 7.49992C8.33398 6.39485 8.77297 5.33504 9.55437 4.55364C10.3358 3.77224 11.3956 3.33325 12.5007 3.33325C18.334 3.33325 20.0007 11.6666 20.0007 11.6666Z" stroke="#80BD57" stroke-width="3.5" stroke-linecap="round" stroke-linejoin="round"/>
<path d="M20 11.6667H27.5C28.6051 11.6667 29.6649 11.2277 30.4463 10.4463C31.2277 9.66492 31.6667 8.60511 31.6667 7.50004C31.6667 6.39497 31.2277 5.33516 30.4463 4.55376C29.6649 3.77236 28.6051 3.33337 27.5 3.33337C21.6667 3.33337 20 11.6667 20 11.6667Z" stroke="#80BD57" stroke-width="3.5" stroke-linecap="round" stroke-linejoin="round"/>
</svg>
