<svg width="40" height="40" viewBox="0 0 40 40" fill="none" xmlns="http://www.w3.org/2000/svg">
<path d="M35.3494 26.4835C34.2891 28.9909 32.6307 31.2005 30.5192 32.919C28.4077 34.6374 25.9073 35.8125 23.2368 36.3414C20.5662 36.8704 17.8067 36.737 15.1996 35.9531C12.5925 35.1692 10.2171 33.7586 8.28107 31.8446C6.34506 29.9305 4.90739 27.5714 4.09376 24.9734C3.28013 22.3754 3.11531 19.6176 3.6137 16.9412C4.11209 14.2648 5.25853 11.7512 6.95278 9.62018C8.64703 7.48918 10.8375 5.80566 13.3327 4.7168" stroke="#80BD57" stroke-width="3.5" stroke-linecap="round" stroke-linejoin="round"/>
<path d="M36.6667 19.9999C36.6667 17.8112 36.2356 15.644 35.398 13.6219C34.5604 11.5998 33.3328 9.76245 31.7851 8.21481C30.2375 6.66716 28.4002 5.4395 26.3781 4.60193C24.356 3.76435 22.1887 3.33325 20 3.33325V19.9999H36.6667Z" stroke="#80BD57" stroke-width="3.5" stroke-linecap="round" stroke-linejoin="round"/>
</svg>
