<svg width="40" height="40" viewBox="0 0 40 40" fill="none" xmlns="http://www.w3.org/2000/svg">
<mask id="mask0_2087_4145" style="mask-type:alpha" maskUnits="userSpaceOnUse" x="0" y="0" width="40" height="40">
<rect width="40" height="40" fill="#D9D9D9"/>
</mask>
<g mask="url(#mask0_2087_4145)">
<path d="M21.4721 19.4446V12.6946C21.4721 12.2962 21.3402 11.9651 21.0763 11.7012C20.8124 11.4374 20.4814 11.3054 20.0834 11.3054C19.6853 11.3054 19.3543 11.4374 19.0905 11.7012C18.8266 11.9651 18.6946 12.2962 18.6946 12.6946V19.9862C18.6946 20.1712 18.727 20.3449 18.7917 20.5071C18.8564 20.669 18.9537 20.824 19.0834 20.9721L24.9167 26.9446C25.1853 27.2315 25.5232 27.3704 25.9305 27.3612C26.338 27.3518 26.676 27.2129 26.9446 26.9446C27.213 26.676 27.3471 26.3426 27.3471 25.9446C27.3471 25.5462 27.213 25.2129 26.9446 24.9446L21.4721 19.4446ZM20 36.6667C17.7131 36.6667 15.5557 36.2292 13.528 35.3542C11.5002 34.4792 9.73157 33.2871 8.22212 31.7779C6.71296 30.2685 5.52087 28.4999 4.64587 26.4721C3.77087 24.4443 3.33337 22.2869 3.33337 20C3.33337 17.7131 3.77087 15.5557 4.64587 13.5279C5.52087 11.5001 6.71296 9.73152 8.22212 8.22208C9.73157 6.71291 11.5002 5.52083 13.528 4.64583C15.5557 3.77083 17.7131 3.33333 20 3.33333C22.287 3.33333 24.4443 3.77083 26.4721 4.64583C28.4999 5.52083 30.2685 6.71291 31.778 8.22208C33.2871 9.73152 34.4792 11.5001 35.3542 13.5279C36.2292 15.5557 36.6667 17.7131 36.6667 20C36.6667 22.2869 36.2292 24.4443 35.3542 26.4721C34.4792 28.4999 33.2871 30.2685 31.778 31.7779C30.2685 33.2871 28.4999 34.4792 26.4721 35.3542C24.4443 36.2292 22.287 36.6667 20 36.6667ZM20 33.8888C23.8242 33.8888 27.095 32.53 29.8125 29.8125C32.53 27.095 33.8888 23.8242 33.8888 20C33.8888 16.1758 32.53 12.905 29.8125 10.1875C27.095 7.47 23.8242 6.11124 20 6.11124C16.1759 6.11124 12.905 7.47 10.1875 10.1875C7.47004 12.905 6.11129 16.1758 6.11129 20C6.11129 23.8242 7.47004 27.095 10.1875 29.8125C12.905 32.53 16.1759 33.8888 20 33.8888Z" fill="#334699"/>
</g>
</svg>
